# xmcd
#
# Track frame offsets:
#	150
#	11086
#	23736
#	35640
#	47953
#	60085
#	73800
#	85347
#	96776
#	108808
#	121516
#	134194
#	144531
#	156186
#	169046
#	182246
#	194009
#	211149
#	224096
#	236495
#	247292
#	258435
#	269704
#	283144
#	299936
#
# Disc length: 4171 seconds
#
# Revision: 1
# Processed by: cddbd v1.5.2PL0 Copyright (c) Steve Scherf et al.
# Submitted via: EZCDAudioConverter 6.0.9.1
#
DISCID=94104919
DTITLE=Rhino UK - 25 Ultimate SOUL LEGENDS
DYEAR=2014
DGENRE=Soul
TTITLE0=Aretha Franklin - Respect
TTITLE1=Ray Charles - I Got a Woman (45 Version) 
TTITLE2=Otis Redding - (Sittin' On) The Dock Of The Bay 
TTITLE3=Solomon Burke - Everybody Needs Somebody To Love 
TTITLE4=The Drifters - Under The Boardwalk 
TTITLE5=Eddie Floyd - Knock On Wood
TTITLE6=Wilson Pickett - In The Midnight Hour 
TTITLE7=Rufus Thomas - Walking The Dog
TTITLE8=The Coasters - Poison Ivy 
TTITLE9=Booker T. and The MG's - Green Onions 
TTITLE10=Percy Sledge - When A Man Loves A Woman
TTITLE11=Arthur Conley - Sweet Soul Music 
TTITLE12=Sam and Dave - Soul Man 
TTITLE13=Clarence Carter - Snatching It Back
TTITLE14=King Curtis - Memphis Soul Stew 
TTITLE15=The Mar-Keys - Last Night 
TTITLE16=Donny Hathaway - I Believe To My Soul 
TTITLE17=Carla Thomas - B-A-B-Y 
TTITLE18=William Bell - Any Other Way
TTITLE19=Don Covay - Mercy, Mercy 
TTITLE20=The Clovers - One Mint Julep 
TTITLE21=Doris Troy - Just One Look 
TTITLE22=Joe Turner - Shake, Rattle And Roll 
TTITLE23=Howard Tate - Girl Of The North Country 
TTITLE24=Ben E. King - Stand By Me
EXTD=
EXTT0=
EXTT1=
EXTT2=
EXTT3=
EXTT4=
EXTT5=
EXTT6=
EXTT7=
EXTT8=
EXTT9=
EXTT10=
EXTT11=
EXTT12=
EXTT13=
EXTT14=
EXTT15=
EXTT16=
EXTT17=
EXTT18=
EXTT19=
EXTT20=
EXTT21=
EXTT22=
EXTT23=
EXTT24=
PLAYORDER=
